<?xml version="1.0" encoding="utf-8"?>
<!-- Generator: Adobe Illustrator 23.0.3, SVG Export Plug-In . SVG Version: 6.00 Build 0)  -->
<svg version="1.1" id="Layer_1" xmlns="http://www.w3.org/2000/svg" xmlns:xlink="http://www.w3.org/1999/xlink" x="0px" y="0px"
	 viewBox="0 0 428.67 241.33" style="enable-background:new 0 0 428.67 241.33;" xml:space="preserve">
<style type="text/css">
	.st0{fill:#133C8B;}
	.st1{fill:#92B0AE;}
	.st2{fill:#7E8DAB;}
	.st3{fill:#C4C7C8;}
	.st4{fill:#00A99D;}
	.st5{fill:#31C1D7;}
</style>
<path d="M164.59,36.53h2.06l9.17,20.57h-2.99l-2.73-6.06h-8.73l-2.56,6.06h-3L164.59,36.53z M168.9,48.42l-3.3-7.43l-3.07,7.43
	H168.9z"/>
<path d="M173.31,36.6h17.12v2.61h-7.14V57.1h-2.94V39.21h-7.04V36.6z"/>
<path d="M193.22,36.64h2.94V57.1h-2.94V36.64z"/>
<path d="M210.75,36.31c3.15,0,5.79,1.03,7.9,3.01c2.08,2.02,3.14,4.54,3.14,7.56c0,3-1.06,5.51-3.19,7.49
	c-2.11,1.99-4.79,2.98-8.02,2.98c-3.08,0-5.63-0.99-7.72-2.98c-2.05-1.98-3.09-4.46-3.09-7.43c0-3.05,1.05-5.59,3.15-7.61
	C204.96,37.34,207.58,36.31,210.75,36.31z M210.85,39.11c-2.33,0-4.26,0.76-5.77,2.2c-1.49,1.45-2.26,3.34-2.26,5.62
	c0,2.19,0.76,4.03,2.27,5.49c1.51,1.48,3.41,2.2,5.68,2.2c2.28,0,4.19-0.73,5.72-2.24c1.53-1.5,2.29-3.34,2.29-5.58
	c0-2.18-0.76-3.98-2.29-5.47C214.96,39.87,213.08,39.11,210.85,39.11z"/>
<path d="M241.65,36.64h2.81V57.1h-2.54l-13.69-15.78V57.1h-2.76V36.64h2.38l13.8,15.87V36.64z"/>
<path d="M255.36,36.53h2.03l9.18,20.57h-2.97l-2.73-6.06h-8.75l-2.55,6.06h-2.99L255.36,36.53z M259.68,48.44l-3.33-7.46l-3.05,7.46
	H259.68z"/>
<path d="M268.82,36.64h2.97v17.8h9.19v2.66h-12.16V36.64z"/>
<path d="M309.52,52.34v3.24c-2.13,1.15-4.59,1.76-7.45,1.76c-2.27,0-4.21-0.48-5.8-1.4c-1.59-0.9-2.86-2.19-3.78-3.8
	c-0.93-1.61-1.39-3.35-1.39-5.22c0-2.98,1.05-5.5,3.17-7.54c2.15-2,4.77-3.01,7.88-3.01c2.13,0,4.54,0.53,7.16,1.67v3.15
	c-2.39-1.37-4.76-2.04-7.03-2.04c-2.35,0-4.28,0.74-5.83,2.19c-1.54,1.49-2.33,3.35-2.33,5.57c0,2.26,0.75,4.08,2.29,5.55
	c1.53,1.41,3.47,2.14,5.82,2.14C304.74,54.62,307.16,53.87,309.52,52.34z"/>
<path d="M313.13,36.64h11.61v2.59h-8.68v6.24h8.38v2.64h-8.38v6.36h8.93v2.61h-11.87V36.64z"/>
<path d="M344.4,36.64h2.77V57.1h-2.51l-13.7-15.78V57.1h-2.74V36.64h2.36l13.81,15.87V36.64z"/>
<path d="M349.83,36.6h17.07v2.61h-7.13V57.1h-2.94V39.21h-7V36.6z"/>
<path d="M387.64,36.64h11.59v2.59h-8.68v6.24h8.39v2.64h-8.39v6.36h8.96v2.61h-11.87V36.64z"/>
<path d="M369.77,57.1V36.64h5.11c2.09,0,3.74,0.52,4.96,1.54c1.2,1.03,1.84,2.38,1.84,4.14c0,1.2-0.33,2.22-0.91,3.1
	c-0.59,0.86-1.47,1.53-2.58,1.96c0.68,0.43,1.3,1.01,1.93,1.75c0.61,0.75,1.51,2.02,2.63,3.89c0.72,1.15,1.29,2.03,1.73,2.59
	l1.07,1.48h-3.48l-0.9-1.33c-0.04-0.07-0.09-0.17-0.16-0.26l-0.59-0.83l-0.89-1.49l-0.99-1.59c-0.6-0.83-1.16-1.51-1.65-1.99
	c-0.52-0.52-0.97-0.9-1.36-1.1c-0.42-0.19-1.09-0.33-2.05-0.33h-0.79v8.92H369.77z M373.58,39.11h-0.9v6.45h1.14
	c1.47,0,2.49-0.11,3.05-0.35c0.53-0.27,0.96-0.64,1.27-1.18c0.33-0.49,0.47-1.07,0.47-1.73c0-0.65-0.17-1.24-0.51-1.77
	c-0.35-0.52-0.84-0.89-1.46-1.1C376.04,39.22,374.99,39.11,373.58,39.11z"/>
<path d="M134.67,67.97h10.9v2.62h-7.98v5.72h7.98v2.61h-7.98v9.54h-2.92V67.97z"/>
<path d="M158.75,67.71c3.18,0,5.8,0.98,7.9,3c2.11,1.99,3.14,4.49,3.14,7.52c0,3.01-1.04,5.52-3.18,7.49
	c-2.12,1.99-4.79,2.97-8,2.97c-3.1,0-5.66-0.98-7.71-2.97c-2.06-1.97-3.1-4.45-3.1-7.41c0-3.08,1.04-5.6,3.12-7.59
	C152.98,68.69,155.58,67.71,158.75,67.71z M158.89,70.47c-2.35,0-4.28,0.73-5.8,2.21c-1.5,1.45-2.26,3.34-2.26,5.62
	c0,2.2,0.76,4.02,2.28,5.5c1.5,1.47,3.41,2.19,5.67,2.19c2.29,0,4.22-0.75,5.72-2.24c1.53-1.5,2.3-3.34,2.3-5.58
	c0-2.16-0.77-4.01-2.3-5.47C163,71.2,161.1,70.47,158.89,70.47z"/>
<path d="M173.51,88.46V67.97h5.11c2.08,0,3.73,0.52,4.95,1.56c1.19,1.02,1.82,2.41,1.82,4.17c0,1.18-0.3,2.22-0.91,3.07
	c-0.59,0.87-1.44,1.54-2.56,1.98c0.65,0.39,1.28,1,1.92,1.73c0.64,0.75,1.51,2.05,2.65,3.88c0.71,1.18,1.27,2.05,1.71,2.65
	l1.07,1.46h-3.48l-0.9-1.36c-0.03-0.05-0.07-0.12-0.19-0.24l-0.57-0.81l-0.89-1.49l-0.99-1.59c-0.61-0.85-1.16-1.53-1.65-2.02
	c-0.52-0.5-0.97-0.86-1.38-1.07c-0.38-0.23-1.08-0.33-2.03-0.33h-0.77v8.9H173.51z M177.32,70.47h-0.89v6.46h1.11
	c1.48,0,2.51-0.13,3.07-0.39c0.55-0.25,0.97-0.64,1.27-1.13c0.31-0.54,0.46-1.12,0.46-1.77c0-0.63-0.15-1.23-0.5-1.75
	c-0.34-0.53-0.82-0.9-1.46-1.12C179.76,70.56,178.73,70.47,177.32,70.47z"/>
<path d="M204.95,79.88l-2.23-1.35c-1.4-0.86-2.4-1.71-2.99-2.52c-0.59-0.82-0.87-1.8-0.87-2.86c0-1.61,0.56-2.91,1.66-3.91
	c1.12-1.01,2.58-1.53,4.36-1.53c1.71,0,3.28,0.5,4.71,1.46v3.32c-1.48-1.43-3.06-2.14-4.78-2.14c-0.93,0-1.7,0.21-2.34,0.67
	c-0.62,0.47-0.92,1.01-0.92,1.72c0,0.6,0.23,1.17,0.67,1.74c0.45,0.53,1.19,1.08,2.19,1.64l2.25,1.35c2.51,1.47,3.76,3.37,3.76,5.7
	c0,1.66-0.57,2.94-1.67,4c-1.09,1.02-2.54,1.53-4.28,1.53c-2.03,0-3.86-0.62-5.52-1.88v-3.71c1.56,2.02,3.41,3.01,5.49,3.01
	c0.91,0,1.68-0.23,2.29-0.76c0.61-0.51,0.93-1.14,0.93-1.92C207.65,82.19,206.73,80.99,204.95,79.88z"/>
<path d="M211.88,67.97h17.11v2.59h-7.14v17.9h-2.95v-17.9h-7.01V67.97z"/>
<path d="M235.27,67.87h2.07l9.18,20.59h-3.01l-2.72-6.09h-8.71l-2.58,6.09h-3L235.27,67.87z M239.59,79.77l-3.33-7.41l-3.03,7.41
	H239.59z"/>
<path d="M244,67.97h17.1v2.59h-7.14v17.9h-2.93v-17.9H244V67.97z"/>
<path d="M263.9,67.97h2.94v20.49h-2.94V67.97z"/>
<path d="M276.42,79.88l-2.21-1.35c-1.41-0.86-2.39-1.71-2.97-2.52c-0.59-0.82-0.9-1.79-0.9-2.86c0-1.61,0.56-2.91,1.7-3.91
	c1.11-1.01,2.56-1.53,4.35-1.53c1.7,0,3.28,0.5,4.7,1.46v3.32c-1.5-1.43-3.08-2.14-4.76-2.14c-0.97,0-1.74,0.21-2.38,0.67
	c-0.59,0.47-0.93,1.01-0.93,1.72c0,0.6,0.25,1.17,0.69,1.74c0.45,0.53,1.2,1.08,2.2,1.64l2.24,1.35c2.48,1.47,3.74,3.37,3.74,5.7
	c0,1.66-0.54,2.94-1.63,4c-1.11,1.02-2.54,1.53-4.31,1.53c-2,0-3.85-0.62-5.53-1.88v-3.71c1.59,2.02,3.44,3.01,5.51,3.01
	c0.92,0,1.69-0.23,2.3-0.76c0.59-0.51,0.91-1.14,0.91-1.92C279.14,82.19,278.24,80.99,276.42,79.88z"/>
<path d="M283.36,67.97h17.1v2.59h-7.11v17.9h-2.95v-17.9h-7.04V67.97z"/>
<path d="M303.26,67.99h2.95v20.47h-2.95V67.99z"/>
<path d="M328.38,83.69v3.24c-2.13,1.18-4.62,1.76-7.46,1.76c-2.28,0-4.21-0.46-5.81-1.37c-1.59-0.94-2.85-2.18-3.78-3.81
	c-0.92-1.6-1.39-3.35-1.39-5.21c0-2.99,1.05-5.5,3.18-7.55c2.12-2.01,4.76-3.05,7.86-3.05c2.16,0,4.54,0.57,7.16,1.69v3.15
	c-2.37-1.37-4.71-2.05-7.01-2.05c-2.33,0-4.26,0.78-5.82,2.24c-1.56,1.47-2.32,3.34-2.32,5.57c0,2.22,0.76,4.07,2.25,5.51
	c1.56,1.46,3.48,2.17,5.86,2.17C323.6,85.99,326.01,85.23,328.38,83.69z"/>
<path d="M337.05,79.88l-2.22-1.35c-1.4-0.86-2.4-1.71-2.97-2.52c-0.61-0.82-0.89-1.79-0.89-2.86c0-1.61,0.55-2.91,1.66-3.91
	c1.12-1.01,2.57-1.53,4.36-1.53c1.71,0,3.29,0.5,4.69,1.46v3.32c-1.46-1.43-3.05-2.14-4.75-2.14c-0.93,0-1.73,0.21-2.34,0.67
	c-0.62,0.47-0.94,1.01-0.94,1.69c0,0.62,0.25,1.19,0.7,1.76c0.46,0.53,1.19,1.08,2.19,1.64l2.22,1.35c2.51,1.47,3.75,3.37,3.75,5.7
	c0,1.66-0.55,2.94-1.64,4c-1.1,1.02-2.55,1.53-4.29,1.53c-2.03,0-3.88-0.62-5.52-1.88v-3.69c1.58,2,3.42,2.98,5.48,2.98
	c0.92,0,1.69-0.23,2.31-0.76c0.59-0.51,0.91-1.14,0.91-1.92C339.75,82.19,338.87,80.99,337.05,79.88z"/>
<path d="M147.26,119.8l-2.39-2.76c-0.2,0.19-0.55,0.47-1.03,0.86l-0.06,0.06c-0.68,0.58-1.53,1.08-2.56,1.49
	c-1.04,0.38-1.98,0.62-2.91,0.62c-1.39,0-2.61-0.48-3.59-1.4c-0.96-0.93-1.48-2.05-1.48-3.38c0-0.95,0.24-1.8,0.73-2.59
	c0.5-0.78,1.27-1.57,2.37-2.38l0.07-0.02c0.62-0.49,1.18-0.85,1.65-1.1c-1.55-1.64-2.32-3.25-2.32-4.75c0-1.39,0.47-2.52,1.41-3.41
	c0.96-0.86,2.21-1.29,3.7-1.29c1.5,0,2.72,0.42,3.66,1.26c0.97,0.87,1.44,1.93,1.44,3.26c0,1.77-1.19,3.51-3.59,5.25l-0.21,0.14
	l2.9,3.3c0.85-0.95,1.58-2.03,2.19-3.33h2.94c-0.73,1.83-1.83,3.63-3.34,5.37l4.16,4.8H147.26z M142.38,115.59l0.67-0.61l-3.31-3.85
	l-1.3,0.91c-1.52,1.02-2.3,2.08-2.3,3.15c0,0.53,0.26,1.05,0.78,1.46c0.48,0.42,1.07,0.61,1.79,0.61c0.56,0,1.17-0.14,1.86-0.44
	C141.25,116.47,141.86,116.07,142.38,115.59z M140.5,107.68l1.11-0.79c1.05-0.74,1.58-1.59,1.58-2.55c0-0.61-0.23-1.09-0.66-1.48
	c-0.45-0.44-0.99-0.6-1.65-0.6c-0.65,0-1.17,0.16-1.6,0.54c-0.43,0.37-0.62,0.82-0.62,1.4c0,0.52,0.16,1.1,0.5,1.75
	C139.46,106.57,139.92,107.15,140.5,107.68z"/>
<path d="M161.77,99.35h2.92v20.45h-2.92V99.35z"/>
<path d="M185.49,99.35h2.79v20.45h-2.54l-13.68-15.76v15.76h-2.75V99.35h2.38l13.81,15.89V99.35z"/>
<path d="M192.69,99.35h10.92v2.59h-7.98v5.73h7.98v2.61h-7.98v9.52h-2.93V99.35z"/>
<path d="M216.76,99.06c3.16,0,5.8,1,7.91,3c2.11,2,3.16,4.51,3.16,7.53c0,3.03-1.07,5.5-3.19,7.48c-2.12,1.99-4.81,2.98-8.04,2.98
	c-3.07,0-5.65-0.99-7.7-2.98c-2.04-1.99-3.08-4.45-3.08-7.44c0-3.04,1.04-5.57,3.1-7.57C210.99,100.06,213.63,99.06,216.76,99.06z
	 M216.9,101.84c-2.36,0-4.27,0.75-5.79,2.2c-1.51,1.45-2.26,3.31-2.26,5.59c0,2.22,0.75,4.06,2.26,5.51c1.52,1.47,3.43,2.2,5.69,2.2
	c2.3,0,4.19-0.73,5.73-2.26c1.52-1.48,2.3-3.34,2.3-5.56c0-2.18-0.78-3.99-2.3-5.47C220.99,102.58,219.1,101.84,216.9,101.84z"/>
<path d="M231.52,119.8V99.35h5.13c2.05,0,3.71,0.51,4.91,1.55c1.21,1.01,1.83,2.4,1.83,4.15c0,1.19-0.28,2.19-0.88,3.09
	c-0.61,0.86-1.45,1.52-2.59,1.94c0.68,0.42,1.3,1,1.94,1.75c0.63,0.76,1.51,2.06,2.63,3.89c0.72,1.15,1.3,2.05,1.72,2.63l1.08,1.45
	h-3.47l-0.89-1.34c-0.04-0.04-0.09-0.13-0.18-0.26l-0.59-0.8l-0.88-1.49l-0.99-1.59c-0.6-0.83-1.15-1.51-1.66-2.01
	c-0.5-0.5-0.95-0.87-1.35-1.08c-0.43-0.21-1.11-0.34-2.08-0.34h-0.77v8.91H231.52z M235.33,101.84h-0.9v6.46h1.12
	c1.49,0,2.52-0.13,3.04-0.4c0.56-0.23,0.99-0.63,1.31-1.14c0.3-0.51,0.47-1.09,0.47-1.75c0-0.64-0.19-1.22-0.54-1.75
	c-0.31-0.52-0.82-0.9-1.44-1.11C237.8,101.94,236.77,101.84,235.33,101.84z"/>
<path d="M265.82,99.35h2.77v20.45h-2.96v-15.9l-6.28,7.9h-0.54l-6.39-7.9v15.9h-2.92V99.35h2.78l6.78,8.4L265.82,99.35z"/>
<path d="M279.53,99.24h2.05l9.17,20.56h-3.01l-2.72-6.06h-8.73l-2.56,6.06h-3.02L279.53,99.24z M283.83,111.13l-3.31-7.4l-3.06,7.4
	H283.83z"/>
<path d="M288.25,99.31h17.09v2.62h-7.12v17.87h-2.95v-17.87h-7.02V99.31z"/>
<path d="M308.14,99.35h2.95v20.45h-2.95V99.35z"/>
<path d="M325.68,99.06c3.14,0,5.79,1,7.89,3c2.09,2,3.14,4.51,3.14,7.53c0,3.03-1.05,5.5-3.19,7.48c-2.1,1.99-4.8,2.98-8.01,2.98
	c-3.08,0-5.66-0.99-7.71-2.98c-2.06-1.99-3.08-4.45-3.08-7.44c0-3.04,1.03-5.57,3.08-7.57C319.89,100.06,322.5,99.06,325.68,99.06z
	 M325.79,101.84c-2.35,0-4.27,0.75-5.79,2.2c-1.5,1.45-2.25,3.31-2.25,5.59c0,2.22,0.75,4.06,2.27,5.51c1.51,1.47,3.4,2.2,5.67,2.2
	c2.28,0,4.19-0.73,5.72-2.26c1.52-1.48,2.27-3.33,2.27-5.56c0-2.18-0.75-3.99-2.27-5.47C329.88,102.58,328,101.84,325.79,101.84z"/>
<path d="M356.57,99.35h2.79v20.45h-2.51l-13.68-15.76v15.76h-2.75V99.35h2.36l13.8,15.89V99.35z"/>
<path d="M150.91,36.64h2.78V57.1h-2.52l-13.69-15.78V57.1h-2.75V36.64h2.36l13.83,15.87V36.64z"/>
<g>
	<g>
		<polygon class="st0" points="40.49,56.04 55.08,42.07 40.41,21.04 		"/>
	</g>
	<polygon class="st0" points="59.02,47.9 50.73,55.9 58.98,76.94 	"/>
	<polygon class="st1" points="59.01,77.03 59.01,122.71 72.15,110.59 	"/>
	<polygon class="st2" points="58.98,47.92 59.01,77.03 72.15,110.59 91.11,93.12 	"/>
	<polygon class="st3" points="58.98,20.95 58.98,47.92 91.11,93.12 107.05,78.45 	"/>
	<polygon class="st4" points="59.01,77.03 58.98,76.94 50.73,55.9 40.55,65.64 40.52,108.06 28.09,120.4 28.09,151.17 59.01,122.71 
			"/>
</g>
<g>
	<g>
		<g>
			<path class="st4" d="M134.43,146.61h9.08v2.13h-6.79v5.09h6.56v2.14h-6.56v5.19h7v2.13h-9.3V146.61z"/>
			<path class="st4" d="M149,152.32v1.4c0.93-1.08,1.99-1.61,3.18-1.61c0.66,0,1.27,0.18,1.83,0.53c0.57,0.35,1,0.84,1.29,1.46
				c0.29,0.62,0.44,1.6,0.44,2.93v6.29h-2.09v-6.26c0-1.12-0.17-1.93-0.49-2.41c-0.33-0.48-0.88-0.72-1.65-0.72
				c-0.98,0-1.82,0.51-2.51,1.54v7.85h-2.13v-11H149z"/>
			<path class="st4" d="M159.64,146.61h2.09v7.15c0.87-1.11,1.95-1.66,3.24-1.66c0.7,0,1.33,0.18,1.89,0.55
				c0.56,0.37,0.97,0.87,1.24,1.52c0.27,0.65,0.41,1.61,0.41,2.88v6.26h-2.09v-6.8c0-0.8-0.19-1.45-0.57-1.94
				c-0.38-0.49-0.88-0.74-1.49-0.74c-0.46,0-0.89,0.12-1.3,0.37c-0.4,0.25-0.85,0.66-1.34,1.23v7.88h-2.09V146.61z"/>
			<path class="st4" d="M179.08,156.7v4.67c0,0.37,0.12,0.56,0.37,0.56c0.25,0,0.65-0.19,1.18-0.59v1.33
				c-0.47,0.32-0.85,0.54-1.14,0.65c-0.29,0.12-0.59,0.17-0.9,0.17c-0.89,0-1.42-0.37-1.58-1.1c-0.89,0.72-1.83,1.08-2.83,1.08
				c-0.73,0-1.34-0.25-1.83-0.76c-0.49-0.51-0.73-1.14-0.73-1.91c0-0.69,0.24-1.31,0.72-1.86c0.48-0.55,1.16-0.98,2.03-1.3
				l2.67-0.96v-0.59c0-1.32-0.63-1.98-1.9-1.98c-1.14,0-2.25,0.61-3.32,1.84v-2.38c0.81-1,1.98-1.49,3.5-1.49
				c1.14,0,2.05,0.31,2.74,0.93c0.23,0.2,0.44,0.46,0.62,0.8c0.18,0.33,0.3,0.66,0.35,0.99
				C179.05,155.15,179.08,155.78,179.08,156.7z M177.02,161.14v-3.26l-1.4,0.56c-0.71,0.29-1.21,0.59-1.51,0.89
				c-0.29,0.3-0.44,0.67-0.44,1.12c0,0.45,0.14,0.83,0.42,1.11c0.28,0.29,0.64,0.43,1.08,0.43
				C175.85,161.99,176.46,161.7,177.02,161.14z"/>
			<path class="st4" d="M185.59,152.32v1.4c0.93-1.08,1.99-1.61,3.18-1.61c0.66,0,1.27,0.18,1.83,0.53c0.57,0.35,1,0.84,1.29,1.46
				c0.29,0.62,0.44,1.6,0.44,2.93v6.29h-2.09v-6.26c0-1.12-0.17-1.93-0.49-2.41c-0.33-0.48-0.88-0.72-1.65-0.72
				c-0.98,0-1.82,0.51-2.51,1.54v7.85h-2.13v-11H185.59z"/>
			<path class="st4" d="M204.18,160.74v2.15c-1.05,0.41-2.07,0.61-3.07,0.61c-1.65,0-2.97-0.51-3.95-1.53
				c-0.98-1.02-1.47-2.39-1.47-4.1c0-1.73,0.48-3.12,1.43-4.18c0.96-1.06,2.21-1.59,3.77-1.59c0.54,0,1.03,0.05,1.46,0.16
				c0.43,0.11,0.96,0.31,1.6,0.6v2.32c-1.05-0.7-2.03-1.05-2.93-1.05c-0.94,0-1.71,0.34-2.31,1.03c-0.6,0.69-0.91,1.57-0.91,2.64
				c0,1.12,0.33,2.02,0.98,2.68s1.53,0.99,2.64,0.99C202.22,161.47,203.14,161.23,204.18,160.74z"/>
			<path class="st4" d="M208.66,147.69c0.34,0,0.64,0.12,0.88,0.37c0.24,0.25,0.37,0.55,0.37,0.91c0,0.35-0.12,0.65-0.37,0.91
				c-0.24,0.25-0.54,0.38-0.88,0.38c-0.32,0-0.6-0.13-0.85-0.39c-0.24-0.26-0.37-0.56-0.37-0.9c0-0.33,0.12-0.63,0.37-0.89
				C208.06,147.82,208.34,147.69,208.66,147.69z M207.63,152.32h2.09v11h-2.09V152.32z"/>
			<path class="st4" d="M215.85,152.32v1.4c0.93-1.08,1.99-1.61,3.18-1.61c0.66,0,1.27,0.18,1.83,0.53c0.57,0.35,1,0.84,1.29,1.46
				c0.29,0.62,0.44,1.6,0.44,2.93v6.29h-2.09v-6.26c0-1.12-0.17-1.93-0.49-2.41c-0.33-0.48-0.88-0.72-1.65-0.72
				c-0.98,0-1.82,0.51-2.51,1.54v7.85h-2.13v-11H215.85z"/>
			<path class="st4" d="M226,156.12c0-1.17,0.41-2.1,1.23-2.78c0.82-0.68,1.94-1.02,3.36-1.02h4.34v1.7h-2.13
				c0.41,0.44,0.7,0.84,0.86,1.19c0.16,0.36,0.24,0.77,0.24,1.23c0,0.57-0.16,1.14-0.47,1.69c-0.31,0.55-0.72,0.98-1.21,1.27
				c-0.49,0.29-1.3,0.53-2.42,0.7c-0.79,0.12-1.18,0.4-1.18,0.85c0,0.26,0.15,0.47,0.44,0.63c0.29,0.16,0.83,0.33,1.6,0.51
				c1.29,0.29,2.12,0.53,2.49,0.69c0.37,0.17,0.7,0.41,1,0.72c0.5,0.53,0.76,1.19,0.76,1.98c0,1.04-0.45,1.88-1.34,2.5
				c-0.89,0.62-2.08,0.93-3.57,0.93c-1.51,0-2.71-0.31-3.61-0.94c-0.9-0.62-1.35-1.46-1.35-2.52c0-1.49,0.88-2.45,2.65-2.88
				c-0.7-0.47-1.05-0.94-1.05-1.4c0-0.35,0.15-0.67,0.45-0.96c0.3-0.29,0.71-0.5,1.22-0.63C226.77,158.88,226,157.72,226,156.12z
				 M229.42,163.83c-0.7,0-1.28,0.16-1.72,0.47c-0.45,0.31-0.67,0.71-0.67,1.19c0,1.13,0.98,1.7,2.93,1.7
				c0.93,0,1.64-0.14,2.15-0.42c0.51-0.28,0.76-0.68,0.76-1.2c0-0.51-0.32-0.93-0.96-1.25
				C231.27,163.99,230.44,163.83,229.42,163.83z M229.92,154.21c-0.57,0-1.05,0.2-1.44,0.6c-0.4,0.4-0.6,0.88-0.6,1.43
				c0,0.57,0.19,1.03,0.58,1.4s0.88,0.56,1.48,0.56c0.59,0,1.08-0.19,1.47-0.57c0.39-0.38,0.59-0.85,0.59-1.42
				c0-0.57-0.2-1.05-0.6-1.44C231.01,154.4,230.51,154.21,229.92,154.21z"/>
			<path class="st4" d="M254.48,146.61h2.87l-6.95,7.92l8.65,8.77h-3.13l-8.18-8.25v8.25h-2.29v-16.7h2.29v7.64L254.48,146.61z"/>
			<path class="st4" d="M263.65,152.32v1.4c0.93-1.08,1.99-1.61,3.17-1.61c0.66,0,1.27,0.18,1.83,0.53s1,0.84,1.29,1.46
				c0.29,0.62,0.44,1.6,0.44,2.93v6.29h-2.09v-6.26c0-1.12-0.17-1.93-0.49-2.41c-0.33-0.48-0.88-0.72-1.65-0.72
				c-0.98,0-1.82,0.51-2.51,1.54v7.85h-2.13v-11H263.65z"/>
			<path class="st4" d="M279.38,152.29c1.6,0,2.94,0.54,4,1.62c1.06,1.08,1.59,2.44,1.59,4.07c0,1.59-0.54,2.9-1.62,3.95
				c-1.08,1.05-2.43,1.57-4.07,1.57c-1.58,0-2.9-0.53-3.97-1.59c-1.06-1.06-1.59-2.39-1.59-3.99c0-1.61,0.54-2.95,1.61-4.02
				C276.41,152.83,277.76,152.29,279.38,152.29z M279.26,154.25c-1,0-1.82,0.34-2.46,1.03c-0.64,0.69-0.96,1.56-0.96,2.62
				c0,1.05,0.33,1.91,0.98,2.58c0.66,0.67,1.5,1,2.53,1c1.02,0,1.86-0.34,2.51-1.01c0.65-0.67,0.98-1.54,0.98-2.59
				c0-1.04-0.34-1.91-1.02-2.59C281.15,154.6,280.29,154.25,279.26,154.25z"/>
			<path class="st4" d="M301.27,152.32h2.24l-4.66,11.19h-0.67l-3.12-7.66l-3.08,7.66h-0.68l-4.7-11.19h2.24l2.76,6.67l2.69-6.67
				h1.55l2.66,6.67L301.27,152.32z"/>
			<path class="st4" d="M306.05,146.61h2.09v16.7h-2.09V146.61z"/>
			<path class="st4" d="M321.17,158.01h-7.41c0.05,1.05,0.39,1.89,1.01,2.51c0.62,0.62,1.43,0.93,2.41,0.93
				c1.38,0,2.64-0.45,3.81-1.34v2.13c-0.64,0.45-1.28,0.76-1.91,0.96c-0.63,0.19-1.37,0.29-2.22,0.29c-1.16,0-2.1-0.25-2.82-0.75
				c-0.72-0.5-1.29-1.18-1.72-2.03c-0.43-0.85-0.65-1.83-0.65-2.95c0-1.67,0.45-3.03,1.36-4.08c0.91-1.05,2.09-1.57,3.54-1.57
				c1.4,0,2.51,0.51,3.35,1.53c0.83,1.02,1.25,2.39,1.25,4.1V158.01z M313.8,156.7h5.31c-0.05-0.87-0.3-1.54-0.74-2.01
				c-0.44-0.47-1.04-0.7-1.79-0.7c-0.75,0-1.36,0.24-1.84,0.7C314.25,155.17,313.94,155.84,313.8,156.7z"/>
			<path class="st4" d="M331.49,146.61h2.1v16.7h-4.46c-1.56,0-2.8-0.51-3.73-1.54s-1.39-2.41-1.39-4.14c0-1.62,0.49-2.95,1.46-3.99
				s2.22-1.57,3.73-1.57c0.7,0,1.47,0.16,2.29,0.47V146.61z M331.49,161.45v-6.97c-0.65-0.34-1.31-0.51-1.97-0.51
				c-1.04,0-1.87,0.36-2.48,1.06c-0.61,0.71-0.92,1.67-0.92,2.87c0,1.13,0.27,2,0.8,2.62c0.32,0.37,0.66,0.61,1.02,0.74
				c0.36,0.13,1,0.19,1.94,0.19H331.49z"/>
			<path class="st4" d="M336.92,156.12c0-1.17,0.41-2.1,1.23-2.78c0.82-0.68,1.94-1.02,3.36-1.02h4.34v1.7h-2.13
				c0.41,0.44,0.7,0.84,0.86,1.19c0.16,0.36,0.24,0.77,0.24,1.23c0,0.57-0.16,1.14-0.47,1.69c-0.31,0.55-0.72,0.98-1.21,1.27
				c-0.49,0.29-1.3,0.53-2.42,0.7c-0.79,0.12-1.18,0.4-1.18,0.85c0,0.26,0.15,0.47,0.44,0.63c0.29,0.16,0.83,0.33,1.6,0.51
				c1.29,0.29,2.12,0.53,2.49,0.69c0.37,0.17,0.7,0.41,1,0.72c0.5,0.53,0.76,1.19,0.76,1.98c0,1.04-0.45,1.88-1.34,2.5
				c-0.89,0.62-2.08,0.93-3.57,0.93c-1.51,0-2.71-0.31-3.61-0.94c-0.9-0.62-1.35-1.46-1.35-2.52c0-1.49,0.88-2.45,2.65-2.88
				c-0.7-0.47-1.05-0.94-1.05-1.4c0-0.35,0.15-0.67,0.45-0.96c0.3-0.29,0.71-0.5,1.22-0.63
				C337.69,158.88,336.92,157.72,336.92,156.12z M340.34,163.83c-0.7,0-1.28,0.16-1.72,0.47c-0.45,0.31-0.67,0.71-0.67,1.19
				c0,1.13,0.98,1.7,2.93,1.7c0.93,0,1.64-0.14,2.15-0.42c0.51-0.28,0.76-0.68,0.76-1.2c0-0.51-0.32-0.93-0.96-1.25
				C342.19,163.99,341.36,163.83,340.34,163.83z M340.84,154.21c-0.57,0-1.05,0.2-1.44,0.6c-0.4,0.4-0.6,0.88-0.6,1.43
				c0,0.57,0.19,1.03,0.58,1.4c0.39,0.37,0.88,0.56,1.48,0.56c0.59,0,1.08-0.19,1.47-0.57c0.39-0.38,0.59-0.85,0.59-1.42
				c0-0.57-0.2-1.05-0.6-1.44C341.93,154.4,341.43,154.21,340.84,154.21z"/>
			<path class="st4" d="M357.49,158.01h-7.41c0.05,1.05,0.39,1.89,1.01,2.51c0.62,0.62,1.43,0.93,2.41,0.93
				c1.38,0,2.64-0.45,3.81-1.34v2.13c-0.64,0.45-1.28,0.76-1.91,0.96c-0.63,0.19-1.37,0.29-2.22,0.29c-1.16,0-2.1-0.25-2.82-0.75
				c-0.72-0.5-1.29-1.18-1.72-2.03c-0.43-0.85-0.65-1.83-0.65-2.95c0-1.67,0.45-3.03,1.36-4.08c0.91-1.05,2.09-1.57,3.54-1.57
				c1.4,0,2.51,0.51,3.35,1.53c0.83,1.02,1.25,2.39,1.25,4.1V158.01z M350.12,156.7h5.31c-0.05-0.87-0.3-1.54-0.74-2.01
				c-0.44-0.47-1.04-0.7-1.79-0.7c-0.75,0-1.36,0.24-1.84,0.7C350.58,155.17,350.27,155.84,350.12,156.7z"/>
		</g>
	</g>
</g>
<g>
	<g>
		<path class="st0" d="M137.17,201.28l-1.37-1.1c-0.86-0.7-1.47-1.38-1.83-2.05c-0.36-0.68-0.54-1.45-0.54-2.33
			c0-1.31,0.34-2.38,1.03-3.2c0.69-0.82,1.58-1.23,2.68-1.23c1.05,0,2.02,0.39,2.89,1.17v2.71c-0.91-1.16-1.88-1.74-2.92-1.74
			c-0.59,0-1.07,0.18-1.45,0.54c-0.38,0.36-0.56,0.83-0.56,1.39c0,0.5,0.14,0.97,0.42,1.41c0.28,0.44,0.73,0.89,1.34,1.37l1.37,1.08
			c1.53,1.22,2.3,2.77,2.3,4.65c0,1.34-0.34,2.42-1.01,3.26c-0.68,0.84-1.55,1.26-2.63,1.26c-1.24,0-2.37-0.51-3.39-1.52v-3.04
			c0.97,1.64,2.1,2.45,3.37,2.45c0.56,0,1.04-0.21,1.41-0.62c0.37-0.42,0.56-0.94,0.56-1.57
			C138.82,203.16,138.27,202.19,137.17,201.28z"/>
		<path class="st0" d="M153.64,191.58h1.81v9.47c0,1.29-0.07,2.25-0.21,2.91c-0.14,0.65-0.32,1.2-0.52,1.63
			c-0.21,0.43-0.46,0.82-0.76,1.16c-1,1.14-2.3,1.71-3.91,1.71c-1.64,0-2.95-0.57-3.94-1.7c-0.3-0.35-0.55-0.74-0.76-1.18
			c-0.21-0.44-0.38-0.97-0.51-1.6c-0.14-0.63-0.2-1.62-0.2-2.97v-9.45h1.81v9.47c0,1.57,0.13,2.67,0.4,3.28
			c0.27,0.61,0.68,1.11,1.23,1.47c0.55,0.37,1.2,0.55,1.95,0.55c1.07,0,1.94-0.37,2.61-1.11c0.35-0.4,0.61-0.87,0.76-1.41
			c0.16-0.54,0.23-1.47,0.23-2.79V191.58z"/>
		<path class="st0" d="M160.34,191.58h1.8v14.52h5.66v2.17h-7.46V191.58z"/>
		<path class="st0" d="M168.85,191.56h10.5v2.13h-4.38v14.59h-1.81v-14.59h-4.31V191.56z"/>
		<path class="st0" d="M185.62,191.49h1.26l5.64,16.79h-1.84l-1.68-4.95h-5.36l-1.57,4.95h-1.85L185.62,191.49z M188.26,201.2
			l-2.03-6.05l-1.88,6.05H188.26z"/>
		<path class="st0" d="M206.28,191.58h1.71v16.7h-1.55l-8.4-12.86v12.86h-1.69v-16.7h1.46l8.48,12.97V191.58z"/>
		<path class="st0" d="M217.09,191.49h1.26l5.64,16.79h-1.84l-1.68-4.95h-5.36l-1.57,4.95h-1.85L217.09,191.49z M219.73,201.2
			l-2.03-6.05l-1.88,6.05H219.73z"/>
		<path class="st0" d="M224.85,191.56h10.5v2.13h-4.38v14.59h-1.81v-14.59h-4.31V191.56z"/>
		<path class="st0" d="M239.45,191.58h7.13v2.13h-5.33v5.09h5.15v2.14h-5.15v5.19h5.5v2.13h-7.3V191.58z"/>
		<path class="st0" d="M264.74,191.34c1.94,0,3.56,0.82,4.85,2.45c1.29,1.64,1.94,3.68,1.94,6.15c0,2.46-0.65,4.5-1.96,6.11
			c-1.3,1.61-2.95,2.42-4.93,2.42c-1.89,0-3.47-0.81-4.73-2.42c-1.26-1.62-1.89-3.64-1.89-6.07c0-2.49,0.63-4.56,1.91-6.19
			C261.19,192.16,262.8,191.34,264.74,191.34z M264.81,193.61c-1.44,0-2.62,0.6-3.55,1.79c-0.93,1.2-1.39,2.72-1.39,4.58
			c0,1.8,0.46,3.3,1.39,4.5c0.93,1.19,2.09,1.79,3.49,1.79c1.4,0,2.57-0.61,3.51-1.83c0.94-1.22,1.41-2.74,1.41-4.56
			c0-1.77-0.47-3.26-1.41-4.46C267.33,194.22,266.18,193.61,264.81,193.61z"/>
		<path class="st0" d="M276.16,191.58h6.7v2.13h-4.9v4.66h4.9v2.13h-4.9v7.78h-1.8V191.58z"/>
		<path class="st0" d="M300.87,191.34c1.94,0,3.56,0.82,4.85,2.45c1.29,1.64,1.94,3.68,1.94,6.15c0,2.46-0.65,4.5-1.96,6.11
			c-1.3,1.61-2.95,2.42-4.93,2.42c-1.89,0-3.47-0.81-4.73-2.42c-1.26-1.62-1.89-3.64-1.89-6.07c0-2.49,0.63-4.56,1.91-6.19
			C297.32,192.16,298.92,191.34,300.87,191.34z M300.94,193.61c-1.44,0-2.62,0.6-3.55,1.79c-0.93,1.2-1.39,2.72-1.39,4.58
			c0,1.8,0.46,3.3,1.39,4.5c0.93,1.19,2.09,1.79,3.49,1.79c1.4,0,2.57-0.61,3.51-1.83c0.94-1.22,1.41-2.74,1.41-4.56
			c0-1.77-0.47-3.26-1.41-4.46C303.46,194.22,302.31,193.61,300.94,193.61z"/>
		<path class="st0" d="M322.26,191.58h1.68v16.7h-1.81v-12.99l-3.86,6.46h-0.33l-3.91-6.46v12.99h-1.8v-16.7h1.7l4.18,6.86
			L322.26,191.58z"/>
		<path class="st0" d="M333.07,191.49h1.26l5.64,16.79h-1.84l-1.68-4.95h-5.36l-1.57,4.95h-1.85L333.07,191.49z M335.71,201.2
			l-2.03-6.05l-1.88,6.05H335.71z"/>
		<path class="st0" d="M353.73,191.58h1.71v16.7h-1.55l-8.4-12.86v12.86h-1.69v-16.7h1.46l8.48,12.97V191.58z"/>
	</g>
</g>
<g>
	<line class="st5" x1="124.03" y1="37.12" x2="124.03" y2="123.59"/>
	<rect x="122.8" y="37.12" width="2.47" height="86.47"/>
</g>
</svg>
