<?xml version="1.0" encoding="utf-8"?>
<!-- Generator: Adobe Illustrator 23.0.3, SVG Export Plug-In . SVG Version: 6.00 Build 0)  -->
<svg version="1.1" id="Layer_1" xmlns="http://www.w3.org/2000/svg" xmlns:xlink="http://www.w3.org/1999/xlink" x="0px" y="0px"
	 viewBox="0 0 341.33 241.33" style="enable-background:new 0 0 341.33 241.33;" xml:space="preserve">
<style type="text/css">
	.st0{fill:#133C8B;}
	.st1{fill:#92B0AE;}
	.st2{fill:#7E8DAB;}
	.st3{fill:#C4C7C8;}
	.st4{fill:#00A99D;}
	.st5{fill:#31C1D7;}
</style>
<g>
	<path d="M32.15,59.5c-6.35,0-8.49-3.33-8.49-8.02v-3.13h2.45v2.07c0,4.04,1.23,6.47,5.85,6.47h4.85V49.9
		c0-3.67,2.22-5.47,5.45-5.47h4.23v12.45h1.88v2.61h-4.36V47.07h-1.9c-2.16,0-2.86,1.31-2.86,3.48v8.95H32.15z M30.14,64.73v-2.65
		h2.62v2.65H30.14z M33.91,64.73v-2.65h2.6v2.65H33.91z"/>
	<path d="M48.37,56.89h2.45v2.61h-2.45c-0.77,0-1.39-0.53-1.39-1.3C46.98,57.46,47.6,56.89,48.37,56.89z"/>
	<path d="M50.82,56.89c1.83,0,2.52-1.04,2.52-3.32v-6.34h2.46v6.71c0,1.9,0.71,2.9,2.37,2.95v2.61c-1.24,0-2.85-0.45-3.49-1.71
		c-0.83,1.16-2.03,1.71-3.86,1.71c-0.77,0-1.39-0.53-1.39-1.3C49.43,57.46,50.05,56.89,50.82,56.89z M53.18,44.61v-2.65h2.61v2.65
		H53.18z"/>
	<path d="M58.17,56.89h2.43v2.61h-2.43c-0.76,0-1.4-0.53-1.4-1.3C56.77,57.46,57.4,56.89,58.17,56.89z"/>
	<path d="M60.6,56.89h2.45v2.61H60.6c-0.74,0-1.39-0.53-1.39-1.3C59.21,57.46,59.86,56.89,60.6,56.89z"/>
	<path d="M63.05,56.89h2.42v2.61h-2.42c-0.78,0-1.4-0.53-1.4-1.3C61.66,57.46,62.27,56.89,63.05,56.89z"/>
	<path d="M65.48,56.89h2.45v2.61h-2.45c-0.76,0-1.39-0.53-1.39-1.3C64.08,57.46,64.72,56.89,65.48,56.89z"/>
	<path d="M72.41,36.5v12.2h0.16c1.65-2.34,4.56-4.26,7.66-4.26c4.54,0,5.95,2.57,5.95,6.1v8.97H67.92c-0.75,0-1.38-0.53-1.38-1.3
		c0-0.75,0.63-1.32,1.38-1.32h2.06V36.5H72.41z M72.41,56.89h11.36v-5.79c0-2.43-0.92-4.02-3.85-4.02c-4.84,0-7.51,4.57-7.51,8.36
		V56.89z"/>
	<path d="M103.09,51.48v5.4h1.89v2.61h-1.89c-0.12,4.47-3.08,6.47-6.78,6.47h-4.73v-2.59h4.7c2.34,0,4.16-1.31,4.16-3.88h-2.92
		c-4.96,0-7.35-2.04-7.35-7.32c0-4.88,2.38-7.75,6.74-7.75C100.74,44.43,103.09,46.81,103.09,51.48z M100.49,52.23
		c0-3.44-1.16-5.16-3.75-5.16c-2.37,0-4.01,1.42-4.01,5.13c0,3.75,1.76,4.69,4.36,4.69h3.39V52.23z"/>
	<path d="M104.98,56.89h2.45v2.61h-2.45c-0.76,0-1.39-0.53-1.39-1.3C103.6,57.46,104.23,56.89,104.98,56.89z"/>
	<path d="M107.44,56.89h2.45v2.61h-2.45c-0.76,0-1.4-0.53-1.4-1.3C106.04,57.46,106.68,56.89,107.44,56.89z"/>
	<path d="M109.89,56.89h2.43v2.61h-2.43c-0.77,0-1.42-0.53-1.42-1.3C108.46,57.46,109.12,56.89,109.89,56.89z"/>
	<path d="M117.28,36.5v17.52c0,3.67-1.59,5.49-4.97,5.49c-0.76,0-1.4-0.53-1.4-1.3c0-0.75,0.63-1.32,1.4-1.32
		c2.15,0,2.54-1.27,2.54-3.89V36.5H117.28z"/>
	<path d="M123.68,36.5v23h-2.44v-23H123.68z"/>
	<path d="M135.91,58.97V47.23h2.48v9.66h1.91v2.61h-1.91c-0.1,3.91-1.78,6.4-6.51,6.47v-2.54
		C134.66,63.38,135.91,62.28,135.91,58.97z M135.66,44.61v-2.65h2.6v2.65H135.66z"/>
	<path d="M140.3,56.89h2.42v2.61h-2.42c-0.76,0-1.41-0.53-1.41-1.3C138.9,57.46,139.54,56.89,140.3,56.89z"/>
	<path d="M142.73,56.89h2.44v2.61h-2.44c-0.76,0-1.4-0.53-1.4-1.3C141.33,57.46,141.97,56.89,142.73,56.89z"/>
	<path d="M145.17,56.89h2.42v2.61h-2.42c-0.76,0-1.39-0.53-1.39-1.3C143.78,57.46,144.4,56.89,145.17,56.89z"/>
	<path d="M147.59,56.89h10.73v-2.45c0-1.83-0.31-3.22-1.95-4.23l-6.7-4.26v-1.99l11.31-7.45l1.27,1.86l-9.83,6.46l5.5,3.5
		c2.73,1.72,2.84,3.77,2.84,5.85v5.33h-13.17c-0.81,0-1.37-0.55-1.37-1.3C146.22,57.46,146.75,56.89,147.59,56.89z"/>
	<path d="M164.46,58.97V47.23h2.46v9.66h1.9v2.61h-1.9c-0.08,3.91-1.76,6.4-6.48,6.47v-2.54C163.2,63.38,164.46,62.28,164.46,58.97z
		"/>
	<path d="M168.82,56.89h2.46v2.61h-2.46c-0.74,0-1.39-0.53-1.39-1.3C167.43,57.46,168.08,56.89,168.82,56.89z"/>
	<path d="M171.28,56.89h2.44v2.61h-2.44c-0.77,0-1.41-0.53-1.41-1.3C169.88,57.46,170.52,56.89,171.28,56.89z"/>
	<path d="M173.72,56.89h2.43v2.61h-2.43c-0.77,0-1.4-0.53-1.4-1.3C172.32,57.46,172.95,56.89,173.72,56.89z"/>
	<path d="M174.76,58.2c0-0.74,0.63-1.31,1.38-1.31c2.24,0,2.55-1.68,2.55-3.54v-1.3c0-4.83,2.37-7.62,6.67-7.62
		c4.1,0,6.32,2.64,6.32,7.72c0,0.55-0.07,1.23-0.07,1.79c0,1.9,0.72,2.9,2.38,2.95v2.61c-2.01,0-3.19-0.68-3.81-1.85
		c-1.17,1.46-2.98,2.04-5.13,2.04c-2.25,0-3.94-0.6-5.01-2.01c-0.77,1.2-1.97,1.82-3.9,1.82C175.39,59.5,174.76,58.95,174.76,58.2z
		 M181.32,52.01c0,3.22,0.85,5.11,3.91,5.11c1.89,0,3.07-0.76,3.67-2.49c0.23-0.68,0.25-1.53,0.25-3.03c0-3.1-1.53-4.59-3.84-4.59
		C182.62,47,181.32,48.84,181.32,52.01z"/>
	<path d="M193.99,56.89h2.45v2.61h-2.45c-0.76,0-1.38-0.53-1.38-1.3C192.6,57.46,193.22,56.89,193.99,56.89z"/>
	<path d="M196.44,56.89h2.44v2.61h-2.44c-0.78,0-1.42-0.53-1.42-1.3C195.02,57.46,195.66,56.89,196.44,56.89z"/>
	<path d="M198.88,56.89h2.42v2.61h-2.42c-0.77,0-1.4-0.53-1.4-1.3C197.48,57.46,198.11,56.89,198.88,56.89z"/>
	<path d="M201.3,56.89h2.45v2.61h-2.45c-0.76,0-1.39-0.53-1.39-1.3C199.91,57.46,200.54,56.89,201.3,56.89z"/>
	<path d="M208.72,36.5v17.52c0,3.67-1.58,5.49-4.96,5.49c-0.78,0-1.41-0.53-1.41-1.3c0-0.75,0.63-1.32,1.41-1.32
		c2.16,0,2.53-1.27,2.53-3.89V36.5H208.72z"/>
	<path d="M215.13,36.5v23h-2.43v-23H215.13z"/>
	<path d="M119.44,87.32h3.9v2.46h-11.47v-2.46h2.94l0.09-0.13c-0.43-0.63-0.65-1.44-0.65-2.25c0-2.1,1.34-4.61,5.31-4.61
		c1.32,0,3.06,0.51,4.19,1.37l-1.08,2.03c-1.08-0.75-2.39-1.01-3.11-1.01c-1.85,0-2.81,1.11-2.81,2.38
		C116.74,86.69,117.98,87.32,119.44,87.32z"/>
	<path d="M131.26,89.78c-2.9,0-3.87-1.12-3.87-4.29V66.77h2.46v18.29c0,1.32,0.26,2.13,2.02,2.13h0.2v2.6H131.26z"/>
	<path d="M132.08,87.19h2.45v2.6h-2.45c-0.77,0-1.39-0.5-1.39-1.25C130.69,87.76,131.31,87.19,132.08,87.19z"/>
	<path d="M134.53,87.19h2.41v2.6h-2.41c-0.77,0-1.4-0.5-1.4-1.25C133.13,87.76,133.76,87.19,134.53,87.19z"/>
	<path d="M136.94,87.19h2.48v2.6h-2.48c-0.75,0-1.37-0.5-1.37-1.25C135.56,87.76,136.19,87.19,136.94,87.19z"/>
	<path d="M139.41,87.19h2.44v2.6h-2.44c-0.78,0-1.42-0.5-1.42-1.25C137.99,87.76,138.64,87.19,139.41,87.19z"/>
	<path d="M141.85,87.19h2.43v2.6h-2.43c-0.78,0-1.41-0.5-1.41-1.25C140.44,87.76,141.07,87.19,141.85,87.19z"/>
	<path d="M144.28,87.19h2.45v2.6h-2.45c-0.76,0-1.39-0.5-1.39-1.25C142.89,87.76,143.52,87.19,144.28,87.19z"/>
	<path d="M146.73,87.19h2.42v2.6h-2.42c-0.78,0-1.4-0.5-1.4-1.25C145.34,87.76,145.96,87.19,146.73,87.19z"/>
	<path d="M153.67,75.78v3.23h0.16c1.64-2.34,4.56-4.3,7.65-4.3c4.54,0,5.95,2.6,5.95,6.1v6.38h1.89v2.6h-20.17
		c-0.75,0-1.39-0.5-1.39-1.25c0-0.78,0.64-1.35,1.39-1.35h2.07V75.78H153.67z M153.67,87.19h11.34v-5.81c0-2.44-0.92-4.02-3.85-4.02
		c-4.84,0-7.49,4.55-7.49,8.35V87.19z"/>
	<path d="M169.32,87.19h2.46v2.6h-2.46c-0.75,0-1.39-0.5-1.39-1.25C167.94,87.76,168.58,87.19,169.32,87.19z"/>
	<path d="M171.79,87.19h2.41v2.6h-2.41c-0.78,0-1.42-0.5-1.42-1.25C170.37,87.76,171.01,87.19,171.79,87.19z"/>
	<path d="M174.22,87.19h2.44v2.6h-2.44c-0.78,0-1.4-0.5-1.4-1.25C172.83,87.76,173.45,87.19,174.22,87.19z"/>
	<path d="M176.67,87.19h2.43v2.6h-2.43c-0.77,0-1.39-0.5-1.39-1.25C175.28,87.76,175.9,87.19,176.67,87.19z"/>
	<path d="M177.7,88.46c0-0.75,0.54-1.27,1.4-1.27h11.3l0.14-0.15c-2.24-2.34,0.26-9.64-4.59-9.64c-1.11,0-2.39,0.2-3.65,0.97
		l-1.18-2.15c1.31-0.99,3.1-1.5,4.78-1.5c8.28,0,4.54,10.54,7.5,12.32v2.75h-14.3C178.26,89.78,177.7,89.26,177.7,88.46z"/>
	<path d="M195.76,87.68l1.72-2.03c1.13,1.24,2.46,1.7,3.63,1.7c3.2,0,4.23-1.48,4.23-4.92V66.77h2.44v17.47
		c0,1.78,0.49,2.8,2.37,2.95v2.6c-1.91-0.05-3.01-0.65-3.59-1.8c-1.16,1.39-3.23,1.95-5.12,1.95
		C198.91,89.94,196.96,89.04,195.76,87.68z M203.38,92.62l-0.71,1.3c-0.68-0.43-1.44-0.55-1.87-0.55c-1.08,0-1.58,0.55-1.58,1.27
		c0,0.87,0.6,1.18,1.49,1.18h2.63v1.59h-6.59v-1.59h1.15l0.02-0.08c-0.28-0.32-0.42-0.81-0.42-1.27c0-1.17,0.87-2.71,3.31-2.71
		C201.56,91.75,202.67,92.06,203.38,92.62z M201.06,67.72v16.27h-2.45V67.72H201.06z"/>
	<path d="M215.13,66.77v17.54c0,3.68-1.6,5.47-4.98,5.47c-0.76,0-1.4-0.5-1.4-1.25c0-0.78,0.63-1.35,1.4-1.35
		c2.14,0,2.53-1.29,2.53-3.88V66.77H215.13z"/>
	<path d="M45.11,107.84v6.74c0,3.66-2.02,5.5-5.46,5.5h-5.57c-6.39,0-8.48-3.36-8.48-8.05v-3.12h2.42v2.1c0,4,1.24,6.43,5.87,6.43
		h5.75c2.55,0,3.01-1.66,3.01-3.52v-6.08H45.11z M32.41,105.8v-2.62h2.6v2.62H32.41z M36.16,105.8v-2.62h2.59v2.62H36.16z"/>
	<path d="M52.93,120.09c-2.88,0-3.86-1.15-3.86-4.31V97.05h2.49v18.28c0,1.33,0.23,2.11,2.02,2.11h0.19v2.64H52.93z"/>
	<path d="M53.77,117.45h2.44v2.64h-2.44c-0.76,0-1.4-0.53-1.4-1.29C52.37,118.04,53.01,117.45,53.77,117.45z"/>
	<path d="M56.21,117.45h2.42v2.64h-2.42c-0.77,0-1.41-0.53-1.41-1.29C54.8,118.04,55.44,117.45,56.21,117.45z"/>
	<path d="M58.63,117.45h2.45v2.64h-2.45c-0.76,0-1.38-0.53-1.38-1.29C57.25,118.04,57.86,117.45,58.63,117.45z"/>
	<path d="M61.07,117.45h2.43v2.64h-2.43c-0.74,0-1.38-0.53-1.38-1.29C59.69,118.04,60.33,117.45,61.07,117.45z"/>
	<path d="M67.43,118.24c-0.76,1.22-1.99,1.84-3.92,1.84c-0.76,0-1.38-0.57-1.38-1.32c0-0.77,0.62-1.32,1.38-1.32
		c2.23,0,2.54-1.66,2.54-3.52v-1.3c0-4.84,2.38-7.61,6.68-7.61c4.11,0,6.31,2.54,6.31,7.69c0,5.53-2.67,7.54-6.63,7.54
		C70.18,120.25,68.49,119.65,67.43,118.24z M76.27,115.19c0.22-0.65,0.24-1.52,0.24-3.03c-0.02-3.11-1.53-4.59-3.84-4.59
		c-2.69,0-3.99,1.83-3.99,5.01c0,3.25,1.12,5.1,3.9,5.1C74.13,117.68,75.66,116.92,76.27,115.19z"/>
	<path d="M95.95,112.03v5.41h1.89v2.64h-1.89c-0.15,4.45-3.1,6.48-6.79,6.48h-4.72v-2.59h4.68c2.35,0,4.15-1.33,4.15-3.89h-2.91
		c-4.95,0-7.36-2.04-7.36-7.34c0-4.88,2.38-7.74,6.76-7.74C93.59,105.02,95.95,107.38,95.95,112.03z M93.32,112.8
		c0-3.44-1.14-5.16-3.73-5.16c-2.35,0-4.02,1.43-4.02,5.13c0,3.73,1.77,4.67,4.37,4.67h3.38V112.8z"/>
	<path d="M97.83,117.45h2.44v2.64h-2.44c-0.75,0-1.4-0.53-1.4-1.29C96.43,118.04,97.08,117.45,97.83,117.45z"/>
	<path d="M100.27,117.45h2.44v2.64h-2.44c-0.77,0-1.4-0.53-1.4-1.29C98.88,118.04,99.51,117.45,100.27,117.45z"/>
	<path d="M102.72,117.45h2.43v2.64h-2.43c-0.78,0-1.4-0.53-1.4-1.29C101.32,118.04,101.94,117.45,102.72,117.45z"/>
	<path d="M105.14,117.45h2.46v2.64h-2.46c-0.76,0-1.38-0.53-1.38-1.29C103.76,118.04,104.38,117.45,105.14,117.45z"/>
	<path d="M107.61,117.45c1.82,0,2.51-1.02,2.51-3.27V97.05h2.46v17.48c0,1.89,0.71,2.87,2.36,2.92v2.64c-1.24,0-2.86-0.49-3.48-1.74
		c-0.82,1.17-2.03,1.74-3.85,1.74c-0.78,0-1.39-0.53-1.39-1.29C106.22,118.04,106.83,117.45,107.61,117.45z"/>
	<path d="M114.94,117.45h2.44v2.64h-2.44c-0.76,0-1.38-0.53-1.38-1.29C113.56,118.04,114.18,117.45,114.94,117.45z"/>
	<path d="M117.38,117.45h2.44v2.64h-2.44c-0.76,0-1.4-0.53-1.4-1.29C115.98,118.04,116.62,117.45,117.38,117.45z"/>
	<path d="M119.81,117.45h2.44v2.64h-2.44c-0.74,0-1.39-0.53-1.39-1.29C118.42,118.04,119.07,117.45,119.81,117.45z"/>
	<path d="M122.25,117.45h2.45v2.64h-2.45c-0.74,0-1.38-0.53-1.38-1.29C120.87,118.04,121.51,117.45,122.25,117.45z"/>
	<path d="M124.7,117.45h2.23c1.47,0,3.44-0.33,4.15-0.61c-3.27-2.39-4.33-4.92-4.33-6.51c0-3.51,3.11-5.32,7.16-5.32
		c3.11,0,6.61,1.33,6.61,5.14c0,2.24-1.69,4.93-4.12,6.57c1.32,0.52,2.72,0.71,4.72,0.71h1.28v2.64h-1.38
		c-2.82,0-5.36-0.69-7.33-1.7c-2.29,1.25-5.33,1.7-7.75,1.7h-1.24c-0.78,0-1.4-0.53-1.4-1.29
		C123.3,118.04,123.92,117.45,124.7,117.45z M129.48,110.58c0,1.08,1.43,3.25,4.45,5.1c3.53-2.45,4.04-4.27,4.04-5.23
		c0-1.45-1.07-2.81-4.14-2.81C130.89,107.65,129.48,108.88,129.48,110.58z"/>
	<path d="M142.4,117.45h2.46v2.64h-2.46c-0.77,0-1.38-0.53-1.38-1.29C141.03,118.04,141.63,117.45,142.4,117.45z"/>
	<path d="M144.86,117.45h2.43v2.64h-2.43c-0.76,0-1.4-0.53-1.4-1.29C143.46,118.04,144.1,117.45,144.86,117.45z"/>
	<path d="M147.3,117.45h2.44v2.64h-2.44c-0.77,0-1.41-0.53-1.41-1.29C145.88,118.04,146.53,117.45,147.3,117.45z"/>
	<path d="M149.74,117.45h2.43v2.64h-2.43c-0.79,0-1.4-0.53-1.4-1.29C148.33,118.04,148.95,117.45,149.74,117.45z"/>
	<path d="M150.77,118.77c0-0.77,0.64-1.32,1.4-1.32c2.21,0,2.54-1.66,2.54-3.52v-1.3c0-4.84,2.37-7.61,6.67-7.61
		c4.11,0,6.3,2.63,6.3,7.69c0,0.55-0.04,1.26-0.04,1.82c0,1.89,0.73,2.87,2.37,2.92v2.64c-2,0-3.17-0.69-3.8-1.85
		c-1.18,1.46-3.01,2.01-5.13,2.01c-2.26,0-3.93-0.6-5.02-2c-0.77,1.22-1.98,1.84-3.89,1.84
		C151.41,120.09,150.77,119.52,150.77,118.77z M157.34,112.58c0,3.25,0.83,5.1,3.9,5.1c1.88,0,3.05-0.76,3.66-2.49
		c0.23-0.65,0.26-1.52,0.26-3.03c0-3.08-1.53-4.59-3.84-4.59C158.63,107.57,157.34,109.41,157.34,112.58z"/>
	<path d="M169.99,117.45h2.47v2.64h-2.47c-0.76,0-1.38-0.53-1.38-1.29C168.61,118.04,169.23,117.45,169.99,117.45z"/>
	<path d="M172.46,117.45h2.42v2.64h-2.42c-0.76,0-1.41-0.53-1.41-1.29C171.04,118.04,171.7,117.45,172.46,117.45z"/>
	<path d="M174.87,117.45h2.45v2.64h-2.45c-0.74,0-1.38-0.53-1.38-1.29C173.49,118.04,174.13,117.45,174.87,117.45z"/>
	<path d="M177.32,117.45h2.43v2.64h-2.43c-0.77,0-1.39-0.53-1.39-1.29C175.93,118.04,176.55,117.45,177.32,117.45z"/>
	<path d="M184.73,97.06v17.52c0,3.66-1.58,5.5-4.98,5.5c-0.77,0-1.37-0.53-1.37-1.29c0-0.76,0.6-1.36,1.37-1.36
		c2.16,0,2.55-1.25,2.55-3.89V97.06H184.73z"/>
	<path d="M191.14,97.06v23.02h-2.43V97.06H191.14z"/>
	<path d="M215.13,119.78c0,4.68-2.85,6.79-6.78,6.79h-4.7v-2.59h4.73c2.33,0,4.14-1.37,4.14-3.94v-1.07l-0.16-0.08
		c-0.92,0.97-2.65,1.36-3.77,1.36c-4.01,0-6.41-2.05-6.41-7.57c0-4.81,2.4-7.66,6.72-7.66c3.75,0,6.22,2.36,6.22,7.26V119.78z
		 M204.76,112.65c0,3.13,1.08,5,3.84,5c1.24,0,2.41-0.46,3.21-1.49c0.65-0.85,0.71-1.98,0.71-3.93c0-3.15-1.51-4.58-3.81-4.58
		C206.03,107.65,204.76,109.57,204.76,112.65z"/>
</g>
<g>
	<g>
		<polygon class="st0" points="255.16,56.04 269.75,42.07 255.08,21.04 		"/>
	</g>
	<polygon class="st0" points="273.69,47.9 265.39,55.9 273.64,76.94 	"/>
	<polygon class="st1" points="273.67,77.03 273.67,122.71 286.81,110.59 	"/>
	<polygon class="st2" points="273.64,47.92 273.67,77.03 286.81,110.59 305.78,93.12 	"/>
	<polygon class="st3" points="273.64,20.95 273.64,47.92 305.78,93.12 321.71,78.45 	"/>
	<polygon class="st4" points="273.67,77.03 273.64,76.94 265.39,55.9 255.22,65.64 255.19,108.06 242.75,120.4 242.75,151.17 
		273.67,122.71 	"/>
</g>
<g>
	<line class="st5" x1="225.87" y1="37.12" x2="225.87" y2="123.59"/>
	<rect x="224.64" y="37.12" width="2.47" height="86.47"/>
</g>
<g>
	<path class="st4" d="M29.79,152.34v6.3c0,2.03,0.37,2.78,1.62,2.87v1.91h-0.09c-1.66,0-2.56-0.93-2.91-2.15
		c-0.84,0.86-2.07,1.35-3.34,1.35c-2.39,0-3.79-1.4-3.79-3.62c0-2.05,1.12-4.9,6.85-5.62v-1.05H29.79z M28.13,158.25v-3.08
		c-4.44,0.56-5.1,2.57-5.1,3.64c0,1.1,0.69,2.03,2.26,2.03C26.24,160.84,28.13,160.53,28.13,158.25z M23.37,151.06v-1.94h1.77v1.94
		H23.37z M25.91,151.06v-1.94h1.77v1.94H25.91z"/>
	<path class="st4" d="M31.41,161.51h1.66v1.91h-1.66c-0.52,0-0.95-0.37-0.95-0.93C30.46,161.93,30.89,161.51,31.41,161.51z"/>
	<path class="st4" d="M33.06,161.51h1.66v1.91h-1.66c-0.52,0-0.95-0.37-0.95-0.93C32.12,161.93,32.55,161.51,33.06,161.51z"/>
	<path class="st4" d="M34.72,161.51h1.66v1.91h-1.66c-0.52,0-0.95-0.37-0.95-0.93C33.77,161.93,34.21,161.51,34.72,161.51z"/>
	<path class="st4" d="M36.38,161.51h1.66v1.91h-1.66c-0.52,0-0.95-0.37-0.95-0.93C35.43,161.93,35.86,161.51,36.38,161.51z"/>
	<path class="st4" d="M38.04,161.51h1.66v1.91h-1.66c-0.52,0-0.95-0.37-0.95-0.93C37.09,161.93,37.52,161.51,38.04,161.51z"/>
	<path class="st4" d="M39.7,161.51h1.66v1.91H39.7c-0.52,0-0.95-0.37-0.95-0.93C38.75,161.93,39.18,161.51,39.7,161.51z"/>
	<path class="st4" d="M41.36,161.51h1.66v1.91h-1.66c-0.52,0-0.95-0.37-0.95-0.93C40.41,161.93,40.84,161.51,41.36,161.51z"/>
	<path class="st4" d="M43.01,161.51h1.66v1.91h-1.66c-0.52,0-0.95-0.37-0.95-0.93C42.07,161.93,42.5,161.51,43.01,161.51z"/>
	<path class="st4" d="M44.67,161.51h1.66v1.91h-1.66c-0.52,0-0.95-0.37-0.95-0.93C43.73,161.93,44.16,161.51,44.67,161.51z"/>
	<path class="st4" d="M46.33,161.51h1.66v1.91h-1.66c-0.52,0-0.95-0.37-0.95-0.93C45.38,161.93,45.81,161.51,46.33,161.51z"/>
	<path class="st4" d="M47.99,161.51h1.66v1.91h-1.66c-0.52,0-0.95-0.37-0.95-0.93C47.04,161.93,47.47,161.51,47.99,161.51z"/>
	<path class="st4" d="M49.65,161.51h1.66v1.91h-1.66c-0.52,0-0.95-0.37-0.95-0.93C48.7,161.93,49.13,161.51,49.65,161.51z"/>
	<path class="st4" d="M51.31,161.51h1.66v1.91h-1.66c-0.52,0-0.95-0.37-0.95-0.93C50.36,161.93,50.79,161.51,51.31,161.51z"/>
	<path class="st4" d="M52.97,161.51h1.66v1.91h-1.66c-0.52,0-0.95-0.37-0.95-0.93C52.02,161.93,52.45,161.51,52.97,161.51z"/>
	<path class="st4" d="M54.62,161.51h1.66v1.91h-1.66c-0.52,0-0.95-0.37-0.95-0.93C53.68,161.93,54.11,161.51,54.62,161.51z"/>
	<path class="st4" d="M56.28,161.51h1.66v1.91h-1.66c-0.52,0-0.95-0.37-0.95-0.93C55.33,161.93,55.77,161.51,56.28,161.51z"/>
	<path class="st4" d="M57.94,161.51h1.66v1.91h-1.66c-0.52,0-0.95-0.37-0.95-0.93C56.99,161.93,57.42,161.51,57.94,161.51z"/>
	<path class="st4" d="M59.6,161.51h1.66v1.91H59.6c-0.52,0-0.95-0.37-0.95-0.93C58.65,161.93,59.08,161.51,59.6,161.51z"/>
	<path class="st4" d="M61.26,161.51h1.66v1.91h-1.66c-0.52,0-0.95-0.37-0.95-0.93C60.31,161.93,60.74,161.51,61.26,161.51z"/>
	<path class="st4" d="M62.92,163.43c-0.56,0-0.95-0.4-0.95-0.96s0.37-0.96,0.95-0.96h2.63c0.5,0,0.99,0.02,1.42,0.09l0.02-0.09
		c-1.74-0.54-2.67-2.03-2.67-4.39c0-2.68,1.59-4.78,4.29-4.78c2.91,0,4.33,2.05,4.33,5.48c0,4.02-1.62,5.6-4.33,5.6H62.92z
		 M68.62,154.23c-1.81,0-2.54,1.47-2.54,3.01c0,2.49,1.94,3.36,4.31,3.61c0.58-0.58,0.82-1.66,0.82-3.15
		C71.21,155.52,70.45,154.23,68.62,154.23z M67.68,150.48v-1.94h1.77v1.94H67.68z"/>
	<path class="st4" d="M75.45,163.05v-8.66h1.68v7.12h1.29v1.91h-1.29c-0.06,2.89-1.21,4.71-4.42,4.78v-1.87
		C74.59,166.3,75.45,165.48,75.45,163.05z"/>
	<path class="st4" d="M78.42,161.51h1.66v1.91h-1.66c-0.52,0-0.95-0.37-0.95-0.93C77.47,161.93,77.91,161.51,78.42,161.51z"/>
	<path class="st4" d="M80.08,161.51h1.66v1.91h-1.66c-0.52,0-0.95-0.37-0.95-0.93C79.13,161.93,79.56,161.51,80.08,161.51z"/>
	<path class="st4" d="M81.74,161.51h1.66v1.91h-1.66c-0.52,0-0.95-0.37-0.95-0.93C80.79,161.93,81.22,161.51,81.74,161.51z"/>
	<path class="st4" d="M83.4,161.51h1.66v1.91H83.4c-0.52,0-0.95-0.37-0.95-0.93C82.45,161.93,82.88,161.51,83.4,161.51z"/>
	<path class="st4" d="M85.06,161.51h1.66v1.91h-1.66c-0.52,0-0.95-0.37-0.95-0.93C84.11,161.93,84.54,161.51,85.06,161.51z"/>
	<path class="st4" d="M86.71,161.51h1.66v1.91h-1.66c-0.52,0-0.95-0.37-0.95-0.93C85.77,161.93,86.2,161.51,86.71,161.51z"/>
	<path class="st4" d="M88.37,161.51h1.53c0.99,0,2.33-0.26,2.8-0.47c-2.22-1.75-2.93-3.61-2.93-4.78c0-2.59,2.11-3.92,4.85-3.92
		c2.13,0,4.5,0.98,4.5,3.8c0,1.63-1.14,3.62-2.8,4.83c0.9,0.37,1.85,0.54,3.21,0.54h0.88v1.91h-0.95c-1.92,0-3.64-0.49-4.98-1.24
		c-1.55,0.93-3.62,1.24-5.28,1.24h-0.84c-0.52,0-0.95-0.37-0.95-0.93C87.43,161.93,87.86,161.51,88.37,161.51z M91.63,156.43
		c0,0.82,0.97,2.4,3.04,3.76c2.39-1.8,2.74-3.12,2.74-3.85c0-1.05-0.73-2.05-2.82-2.05C92.57,154.28,91.63,155.19,91.63,156.43z"/>
	<path class="st4" d="M100.41,161.51h1.66v1.91h-1.66c-0.52,0-0.95-0.37-0.95-0.93C99.47,161.93,99.9,161.51,100.41,161.51z"/>
	<path class="st4" d="M102.07,161.51h1.66v1.91h-1.66c-0.52,0-0.95-0.37-0.95-0.93C101.12,161.93,101.55,161.51,102.07,161.51z"/>
	<path class="st4" d="M102.78,162.47c0-0.56,0.43-0.96,0.95-0.96c1.51,0,1.72-1.24,1.72-2.61v-0.96c0-3.55,1.62-5.6,4.54-5.6
		c2.78,0,4.29,1.94,4.29,5.67c0,0.4-0.04,0.91-0.04,1.33c0,1.4,0.5,2.12,1.62,2.17v1.91c-1.36,0-2.15-0.49-2.58-1.35
		c-0.8,1.07-2.03,1.49-3.49,1.49c-1.53,0-2.67-0.44-3.4-1.47c-0.52,0.88-1.34,1.33-2.65,1.33
		C103.21,163.43,102.78,163.03,102.78,162.47z M107.24,157.92c0,2.38,0.58,3.76,2.65,3.76c1.29,0,2.09-0.56,2.5-1.84
		c0.15-0.49,0.17-1.12,0.17-2.22c0-2.29-1.03-3.38-2.61-3.38C108.12,154.23,107.24,155.59,107.24,157.92z"/>
	<path class="st4" d="M115.86,161.51h1.66v1.91h-1.66c-0.52,0-0.95-0.37-0.95-0.93C114.91,161.93,115.34,161.51,115.86,161.51z"/>
	<path class="st4" d="M117.51,161.51h1.66v1.91h-1.66c-0.52,0-0.95-0.37-0.95-0.93C116.57,161.93,117,161.51,117.51,161.51z"/>
	<path class="st4" d="M122.55,146.48v12.91c0,2.71-1.08,4.04-3.38,4.04c-0.52,0-0.95-0.37-0.95-0.93c0-0.56,0.43-0.98,0.95-0.98
		c1.46,0,1.72-0.93,1.72-2.87v-12.16H122.55z"/>
	<path class="st4" d="M126.91,146.48v16.94h-1.66v-16.94H126.91z"/>
	<path class="st4" d="M135.22,163.05v-8.66h1.68v7.12h1.29v1.91h-1.29c-0.06,2.89-1.21,4.71-4.42,4.78v-1.87
		C134.36,166.3,135.22,165.48,135.22,163.05z M135.05,152.46v-1.93h1.77v1.93H135.05z"/>
	<path class="st4" d="M138.19,161.51h1.66v1.91h-1.66c-0.52,0-0.95-0.37-0.95-0.93C137.24,161.93,137.67,161.51,138.19,161.51z"/>
	<path class="st4" d="M139.85,161.51h1.66v1.91h-1.66c-0.52,0-0.95-0.37-0.95-0.93C138.9,161.93,139.33,161.51,139.85,161.51z"/>
	<path class="st4" d="M141.51,161.51h1.66v1.91h-1.66c-0.52,0-0.95-0.37-0.95-0.93C140.56,161.93,140.99,161.51,141.51,161.51z"/>
	<path class="st4" d="M143.17,161.51h1.66v1.91h-1.66c-0.52,0-0.95-0.37-0.95-0.93C142.22,161.93,142.65,161.51,143.17,161.51z"/>
	<path class="st4" d="M144.82,161.51h1.66v1.91h-1.66c-0.52,0-0.95-0.37-0.95-0.93C143.88,161.93,144.31,161.51,144.82,161.51z"/>
	<path class="st4" d="M146.48,161.51h1.66v1.91h-1.66c-0.52,0-0.95-0.37-0.95-0.93C145.54,161.93,145.97,161.51,146.48,161.51z"/>
	<path class="st4" d="M148.14,161.51h1.66v1.91h-1.66c-0.52,0-0.95-0.37-0.95-0.93C147.19,161.93,147.62,161.51,148.14,161.51z"/>
	<path class="st4" d="M149.8,161.51h1.66v1.91h-1.66c-0.52,0-0.95-0.37-0.95-0.93C148.85,161.93,149.28,161.51,149.8,161.51z"/>
	<path class="st4" d="M151.46,161.51h1.66v1.91h-1.66c-0.52,0-0.95-0.37-0.95-0.93C150.51,161.93,150.94,161.51,151.46,161.51z"/>
	<path class="st4" d="M153.12,161.51h1.66v1.91h-1.66c-0.52,0-0.95-0.37-0.95-0.93C152.17,161.93,152.6,161.51,153.12,161.51z"/>
	<path class="st4" d="M154.77,161.51h1.66v1.91h-1.66c-0.52,0-0.95-0.37-0.95-0.93C153.83,161.93,154.26,161.51,154.77,161.51z"/>
	<path class="st4" d="M156.43,161.51h1.66v1.91h-1.66c-0.52,0-0.95-0.37-0.95-0.93C155.49,161.93,155.92,161.51,156.43,161.51z"/>
	<path class="st4" d="M158.09,161.51h1.66v1.91h-1.66c-0.52,0-0.95-0.37-0.95-0.93C157.14,161.93,157.57,161.51,158.09,161.51z"/>
	<path class="st4" d="M159.75,161.51h1.66v1.91h-1.66c-0.52,0-0.95-0.37-0.95-0.93C158.8,161.93,159.23,161.51,159.75,161.51z"/>
	<path class="st4" d="M161.41,161.51h1.66v1.91h-1.66c-0.52,0-0.95-0.37-0.95-0.93C160.46,161.93,160.89,161.51,161.41,161.51z"/>
	<path class="st4" d="M163.07,161.51h1.66v1.91h-1.66c-0.52,0-0.95-0.37-0.95-0.93C162.12,161.93,162.55,161.51,163.07,161.51z"/>
	<path class="st4" d="M164.73,161.51h1.66v1.91h-1.66c-0.52,0-0.95-0.37-0.95-0.93C163.78,161.93,164.21,161.51,164.73,161.51z"/>
	<path class="st4" d="M166.38,161.51h1.66v1.91h-1.66c-0.52,0-0.95-0.37-0.95-0.93C165.44,161.93,165.87,161.51,166.38,161.51z"/>
	<path class="st4" d="M168.04,161.51h1.66v1.91h-1.66c-0.52,0-0.95-0.37-0.95-0.93C167.09,161.93,167.52,161.51,168.04,161.51z"/>
	<path class="st4" d="M169.7,161.51h1.66v1.91h-1.66c-0.52,0-0.95-0.37-0.95-0.93C168.75,161.93,169.18,161.51,169.7,161.51z"/>
	<path class="st4" d="M171.36,161.51h1.66v1.91h-1.66c-0.52,0-0.95-0.37-0.95-0.93C170.41,161.93,170.84,161.51,171.36,161.51z"/>
	<path class="st4" d="M176.4,152.88v6.51c0,2.71-1.08,4.04-3.38,4.04c-0.52,0-0.95-0.37-0.95-0.93c0-0.56,0.43-0.98,0.95-0.98
		c1.62,0,1.72-1.1,1.72-2.87v-5.76H176.4z M173.19,167.28v-1.94h1.77v1.94H173.19z M175.73,167.28v-1.94h1.77v1.94H175.73z"/>
	<path class="st4" d="M180.96,163.05v-8.66h1.68v7.12h1.29v1.91h-1.29c-0.06,2.89-1.21,4.71-4.42,4.78v-1.87
		C180.1,166.3,180.96,165.48,180.96,163.05z M180.79,152.46v-1.93h1.77v1.93H180.79z"/>
	<path class="st4" d="M183.94,161.51h1.66v1.91h-1.66c-0.52,0-0.95-0.37-0.95-0.93C182.99,161.93,183.42,161.51,183.94,161.51z"/>
	<path class="st4" d="M185.59,161.51h1.66v1.91h-1.66c-0.52,0-0.95-0.37-0.95-0.93C184.65,161.93,185.08,161.51,185.59,161.51z"/>
	<path class="st4" d="M187.25,161.51h1.66v1.91h-1.66c-0.52,0-0.95-0.37-0.95-0.93C186.31,161.93,186.74,161.51,187.25,161.51z"/>
	<path class="st4" d="M188.91,161.51h1.66v1.91h-1.66c-0.52,0-0.95-0.37-0.95-0.93C187.96,161.93,188.39,161.51,188.91,161.51z"/>
	<path class="st4" d="M190.57,161.51h1.66v1.91h-1.66c-0.52,0-0.95-0.37-0.95-0.93C189.62,161.93,190.05,161.51,190.57,161.51z"/>
	<path class="st4" d="M192.23,161.51h1.66v1.91h-1.66c-0.52,0-0.95-0.37-0.95-0.93C191.28,161.93,191.71,161.51,192.23,161.51z"/>
	<path class="st4" d="M193.89,161.51h1.66v1.91h-1.66c-0.52,0-0.95-0.37-0.95-0.93C192.94,161.93,193.37,161.51,193.89,161.51z"/>
	<path class="st4" d="M195.55,161.51h1.53c0.99,0,2.33-0.26,2.8-0.47c-2.22-1.75-2.93-3.61-2.93-4.78c0-2.59,2.11-3.92,4.85-3.92
		c2.13,0,4.5,0.98,4.5,3.8c0,1.63-1.14,3.62-2.8,4.83c0.9,0.37,1.85,0.54,3.21,0.54h0.88v1.91h-0.95c-1.92,0-3.64-0.49-4.98-1.24
		c-1.55,0.93-3.62,1.24-5.28,1.24h-0.84c-0.52,0-0.95-0.37-0.95-0.93C194.6,161.93,195.03,161.51,195.55,161.51z M198.8,156.43
		c0,0.82,0.97,2.4,3.04,3.76c2.39-1.8,2.74-3.12,2.74-3.85c0-1.05-0.73-2.05-2.82-2.05C199.75,154.28,198.8,155.19,198.8,156.43z"/>
	<path class="st4" d="M207.58,161.51h1.66v1.91h-1.66c-0.52,0-0.95-0.37-0.95-0.93C206.64,161.93,207.07,161.51,207.58,161.51z"/>
	<path class="st4" d="M212.62,152.88v6.51c0,2.71-1.08,4.04-3.38,4.04c-0.52,0-0.95-0.37-0.95-0.93c0-0.56,0.43-0.98,0.95-0.98
		c1.62,0,1.72-1.1,1.72-2.87v-5.76H212.62z M209.42,151.06v-1.94h1.77v1.94H209.42z M211.96,151.06v-1.94h1.77v1.94H211.96z"/>
</g>
<g>
	<path class="st0" d="M29.9,207.87c0,2.47-1.53,4.5-4.26,4.5c-3.02,0-4.22-1.98-4.22-4.43V201h1.66v6.28c0,1.77,0.58,3.15,2.58,3.15
		c1.96,0,2.58-1.37,2.58-3.15v-8.73h1.66V207.87z M24.71,197.08v-1.94h1.77v1.94H24.71z"/>
	<path class="st0" d="M35.22,207.58c-1.96,0-2.63-0.84-2.63-3.15v-13.79h1.68v13.47c0,0.98,0.17,1.56,1.38,1.56h0.13v1.91H35.22z"/>
	<path class="st0" d="M35.78,205.67h1.66v1.91h-1.66c-0.52,0-0.95-0.37-0.95-0.93S35.26,205.67,35.78,205.67z"/>
	<path class="st0" d="M37.44,205.67h1.66v1.91h-1.66c-0.52,0-0.95-0.37-0.95-0.93S36.92,205.67,37.44,205.67z"/>
	<path class="st0" d="M39.1,205.67h1.66v1.91H39.1c-0.52,0-0.95-0.37-0.95-0.93S38.58,205.67,39.1,205.67z"/>
	<path class="st0" d="M40.75,205.67h1.66v1.91h-1.66c-0.52,0-0.95-0.37-0.95-0.93S40.24,205.67,40.75,205.67z"/>
	<path class="st0" d="M42.41,205.67h1.66v1.91h-1.66c-0.52,0-0.95-0.37-0.95-0.93S41.9,205.67,42.41,205.67z"/>
	<path class="st0" d="M44.07,205.67h1.66v1.91h-1.66c-0.52,0-0.95-0.37-0.95-0.93S43.55,205.67,44.07,205.67z"/>
	<path class="st0" d="M45.73,205.67h1.66v1.91h-1.66c-0.52,0-0.95-0.37-0.95-0.93S45.21,205.67,45.73,205.67z"/>
	<path class="st0" d="M47.39,205.67h1.66v1.91h-1.66c-0.52,0-0.95-0.37-0.95-0.93S46.87,205.67,47.39,205.67z"/>
	<path class="st0" d="M49.05,205.67h1.66v1.91h-1.66c-0.52,0-0.95-0.37-0.95-0.93S48.53,205.67,49.05,205.67z"/>
	<path class="st0" d="M50.7,205.67h1.66v1.91H50.7c-0.52,0-0.95-0.37-0.95-0.93S50.19,205.67,50.7,205.67z"/>
	<path class="st0" d="M52.36,205.67h1.66v1.91h-1.66c-0.52,0-0.95-0.37-0.95-0.93S51.85,205.67,52.36,205.67z"/>
	<path class="st0" d="M54.02,205.67h1.66v1.91h-1.66c-0.52,0-0.95-0.37-0.95-0.93S53.5,205.67,54.02,205.67z"/>
	<path class="st0" d="M55.68,205.67h1.66v1.91h-1.66c-0.52,0-0.95-0.37-0.95-0.93S55.16,205.67,55.68,205.67z"/>
	<path class="st0" d="M57.34,205.67H59v1.91h-1.66c-0.52,0-0.95-0.37-0.95-0.93S56.82,205.67,57.34,205.67z"/>
	<path class="st0" d="M59,205.67h1.66v1.91H59c-0.52,0-0.95-0.37-0.95-0.93S58.48,205.67,59,205.67z"/>
	<path class="st0" d="M60.65,205.67h1.66v1.91h-1.66c-0.52,0-0.95-0.37-0.95-0.93S60.14,205.67,60.65,205.67z"/>
	<path class="st0" d="M62.31,205.67h1.66v1.91h-1.66c-0.52,0-0.95-0.37-0.95-0.93S61.8,205.67,62.31,205.67z"/>
	<path class="st0" d="M63.97,205.67h1.66v1.91h-1.66c-0.52,0-0.95-0.37-0.95-0.93S63.45,205.67,63.97,205.67z"/>
	<path class="st0" d="M65.63,205.67h1.66v1.91h-1.66c-0.52,0-0.95-0.37-0.95-0.93S65.11,205.67,65.63,205.67z"/>
	<path class="st0" d="M67.29,205.67h1.66v1.91h-1.66c-0.52,0-0.95-0.37-0.95-0.93S66.77,205.67,67.29,205.67z"/>
	<path class="st0" d="M68.95,205.67h1.66v1.91h-1.66c-0.52,0-0.95-0.37-0.95-0.93S68.43,205.67,68.95,205.67z"/>
	<path class="st0" d="M70.6,205.67h1.66v1.91H70.6c-0.52,0-0.95-0.37-0.95-0.93S70.09,205.67,70.6,205.67z"/>
	<path class="st0" d="M71.31,206.63c0-0.56,0.43-0.96,0.95-0.96c1.51,0,1.72-1.24,1.72-2.61v-0.96c0-3.55,1.62-5.6,4.54-5.6
		c2.78,0,4.29,1.94,4.29,5.67c0,0.4-0.04,0.91-0.04,1.33c0,1.4,0.5,2.12,1.62,2.17v1.91c-1.36,0-2.15-0.49-2.58-1.35
		c-0.8,1.07-2.03,1.49-3.49,1.49c-1.53,0-2.67-0.44-3.4-1.47c-0.52,0.88-1.34,1.33-2.65,1.33
		C71.75,207.58,71.31,207.19,71.31,206.63z M75.77,202.08c0,2.38,0.58,3.76,2.65,3.76c1.29,0,2.09-0.56,2.5-1.84
		c0.15-0.49,0.17-1.12,0.17-2.22c0-2.29-1.03-3.38-2.61-3.38C76.66,198.39,75.77,199.74,75.77,202.08z"/>
	<path class="st0" d="M84.39,205.67h1.66v1.91h-1.66c-0.52,0-0.95-0.37-0.95-0.93S83.87,205.67,84.39,205.67z"/>
	<path class="st0" d="M86.05,205.67h1.66v1.91h-1.66c-0.52,0-0.95-0.37-0.95-0.93S85.53,205.67,86.05,205.67z"/>
	<path class="st0" d="M87.71,205.67h1.66v1.91h-1.66c-0.52,0-0.95-0.37-0.95-0.93S87.19,205.67,87.71,205.67z"/>
	<path class="st0" d="M89.36,205.67h1.66v1.91h-1.66c-0.52,0-0.95-0.37-0.95-0.93S88.85,205.67,89.36,205.67z"/>
	<path class="st0" d="M91.02,205.67h1.66v1.91h-1.66c-0.52,0-0.95-0.37-0.95-0.93S90.51,205.67,91.02,205.67z"/>
	<path class="st0" d="M92.68,205.67h1.66v1.91h-1.66c-0.52,0-0.95-0.37-0.95-0.93S92.16,205.67,92.68,205.67z"/>
	<path class="st0" d="M100.05,193.03c-0.34-0.26-0.52-0.68-0.52-1.1c0-0.7,0.47-1.42,1.34-1.42c0.93,0,1.46,0.75,1.46,1.56
		c0,0.7-0.43,1.47-1.38,1.75L98,194.68v-0.96l2.05-0.63V193.03z M100.87,191.49c-0.26,0-0.5,0.21-0.5,0.56
		c0,0.37,0.22,0.63,0.65,0.7c0.21-0.12,0.37-0.37,0.37-0.63C101.38,191.67,101.15,191.49,100.87,191.49z"/>
	<path class="st0" d="M94.34,205.67h2.28l0.11-0.12c-0.86-0.86-0.99-2.38-0.99-3.53c0-3.1,1.64-5.53,4.63-5.53
		c0.97,0,2.18,0.16,3.62,1.66l-1.16,1.49c-0.99-1.14-2.02-1.17-2.5-1.17c-1.59,0-2.76,1.14-2.76,3.67c0,1.28,0.37,3.52,3.14,3.52
		h2.91v1.91h-9.28c-0.52,0-0.95-0.37-0.95-0.93S93.82,205.67,94.34,205.67z"/>
	<path class="st0" d="M120.01,196.5v6.3c0,2.03,0.37,2.78,1.62,2.87v1.91h-0.09c-1.66,0-2.56-0.93-2.91-2.15
		c-0.84,0.86-2.07,1.35-3.34,1.35c-2.39,0-3.79-1.4-3.79-3.62c0-2.05,1.12-4.9,6.85-5.62v-1.05H120.01z M118.35,202.4v-3.08
		c-4.44,0.56-5.1,2.57-5.1,3.64c0,1.1,0.69,2.03,2.26,2.03C116.46,205,118.35,204.69,118.35,202.4z M113.6,195.22v-1.94h1.77v1.94
		H113.6z M116.14,195.22v-1.94h1.77v1.94H116.14z"/>
	<path class="st0" d="M121.63,205.67h1.66v1.91h-1.66c-0.52,0-0.95-0.37-0.95-0.93S121.11,205.67,121.63,205.67z"/>
	<path class="st0" d="M123.29,205.67h1.66v1.91h-1.66c-0.52,0-0.95-0.37-0.95-0.93S122.77,205.67,123.29,205.67z"/>
	<path class="st0" d="M124.94,205.67h1.66v1.91h-1.66c-0.52,0-0.95-0.37-0.95-0.93S124.43,205.67,124.94,205.67z"/>
	<path class="st0" d="M126.6,205.67h1.66v1.91h-1.66c-0.52,0-0.95-0.37-0.95-0.93S126.09,205.67,126.6,205.67z"/>
	<path class="st0" d="M128.26,205.67h1.66v1.91h-1.66c-0.52,0-0.95-0.37-0.95-0.93S127.75,205.67,128.26,205.67z"/>
	<path class="st0" d="M129.92,205.67h1.66v1.91h-1.66c-0.52,0-0.95-0.37-0.95-0.93S129.4,205.67,129.92,205.67z"/>
	<path class="st0" d="M131.58,205.67h1.66v1.91h-1.66c-0.52,0-0.95-0.37-0.95-0.93S131.06,205.67,131.58,205.67z"/>
	<path class="st0" d="M133.24,205.67c1.25,0,1.72-0.77,1.72-2.43v-4.69h1.66v4.95c0,1.4,0.5,2.12,1.62,2.17v1.91
		c-0.84,0-1.94-0.33-2.37-1.26c-0.56,0.87-1.38,1.26-2.63,1.26c-0.52,0-0.95-0.37-0.95-0.93S132.72,205.67,133.24,205.67z
		 M134.85,196.62v-1.93h1.77v1.93H134.85z"/>
	<path class="st0" d="M138.23,205.67h1.66v1.91h-1.66c-0.52,0-0.95-0.37-0.95-0.93S137.72,205.67,138.23,205.67z"/>
	<path class="st0" d="M139.89,205.67h1.66v1.91h-1.66c-0.52,0-0.95-0.37-0.95-0.93S139.38,205.67,139.89,205.67z"/>
	<path class="st0" d="M141.55,205.67h1.66v1.91h-1.66c-0.52,0-0.95-0.37-0.95-0.93S141.03,205.67,141.55,205.67z"/>
	<path class="st0" d="M143.21,205.67h1.66v1.91h-1.66c-0.52,0-0.95-0.37-0.95-0.93S142.69,205.67,143.21,205.67z"/>
	<path class="st0" d="M144.87,205.67h1.66v1.91h-1.66c-0.52,0-0.95-0.37-0.95-0.93S144.35,205.67,144.87,205.67z"/>
	<path class="st0" d="M146.53,205.67h1.66v1.91h-1.66c-0.52,0-0.95-0.37-0.95-0.93S146.01,205.67,146.53,205.67z"/>
	<path class="st0" d="M148.18,205.67h1.66v1.91h-1.66c-0.52,0-0.95-0.37-0.95-0.93S147.67,205.67,148.18,205.67z"/>
	<path class="st0" d="M149.84,205.67h1.66v1.91h-1.66c-0.52,0-0.95-0.37-0.95-0.93S149.33,205.67,149.84,205.67z"/>
	<path class="st0" d="M151.5,205.67h1.66v1.91h-1.66c-0.52,0-0.95-0.37-0.95-0.93S150.98,205.67,151.5,205.67z"/>
	<path class="st0" d="M153.16,205.67h1.66v1.91h-1.66c-0.52,0-0.95-0.37-0.95-0.93S152.64,205.67,153.16,205.67z"/>
	<path class="st0" d="M154.82,205.67h1.66v1.91h-1.66c-0.52,0-0.95-0.37-0.95-0.93S154.3,205.67,154.82,205.67z"/>
	<path class="st0" d="M156.48,205.67h1.66v1.91h-1.66c-0.52,0-0.95-0.37-0.95-0.93S155.96,205.67,156.48,205.67z"/>
	<path class="st0" d="M158.13,205.67h1.66v1.91h-1.66c-0.52,0-0.95-0.37-0.95-0.93S157.62,205.67,158.13,205.67z"/>
	<path class="st0" d="M159.79,205.67h1.66v1.91h-1.66c-0.52,0-0.95-0.37-0.95-0.93S159.28,205.67,159.79,205.67z"/>
	<path class="st0" d="M161.45,205.67h1.66v1.91h-1.66c-0.52,0-0.95-0.37-0.95-0.93S160.93,205.67,161.45,205.67z"/>
	<path class="st0" d="M163.11,205.67h1.66v1.91h-1.66c-0.52,0-0.95-0.37-0.95-0.93S162.59,205.67,163.11,205.67z"/>
	<path class="st0" d="M167.83,190.64v9.01h0.11c1.12-1.73,3.1-3.15,5.21-3.15c3.08,0,4.05,1.89,4.05,4.48v4.69h1.29v1.91h-13.72
		c-0.52,0-0.95-0.37-0.95-0.93s0.43-0.98,0.95-0.98h1.4v-15.03H167.83z M167.83,205.67h7.71v-4.27c0-1.8-0.62-2.97-2.61-2.97
		c-3.3,0-5.1,3.36-5.1,6.16V205.67z"/>
	<path class="st0" d="M178.49,205.67h1.66v1.91h-1.66c-0.52,0-0.95-0.37-0.95-0.93S177.97,205.67,178.49,205.67z"/>
	<path class="st0" d="M180.15,205.67h1.66v1.91h-1.66c-0.52,0-0.95-0.37-0.95-0.93S179.63,205.67,180.15,205.67z"/>
	<path class="st0" d="M181.8,205.67h1.66v1.91h-1.66c-0.52,0-0.95-0.37-0.95-0.93S181.29,205.67,181.8,205.67z"/>
	<path class="st0" d="M183.46,205.67c1.25,0,1.72-0.77,1.72-2.43v-12.6h1.66v12.86c0,1.4,0.5,2.12,1.62,2.17v1.91
		c-0.84,0-1.94-0.33-2.37-1.26c-0.56,0.87-1.38,1.26-2.63,1.26c-0.52,0-0.95-0.37-0.95-0.93S182.95,205.67,183.46,205.67z"/>
	<path class="st0" d="M188.46,205.67h1.66v1.91h-1.66c-0.52,0-0.95-0.37-0.95-0.93S187.94,205.67,188.46,205.67z"/>
	<path class="st0" d="M190.12,205.67h1.66v1.91h-1.66c-0.52,0-0.95-0.37-0.95-0.93S189.6,205.67,190.12,205.67z"/>
	<path class="st0" d="M191.78,205.67h1.66v1.91h-1.66c-0.52,0-0.95-0.37-0.95-0.93S191.26,205.67,191.78,205.67z"/>
	<path class="st0" d="M193.43,205.67h1.66v1.91h-1.66c-0.52,0-0.95-0.37-0.95-0.93S192.92,205.67,193.43,205.67z"/>
	<path class="st0" d="M195.09,205.67h1.66v1.91h-1.66c-0.52,0-0.95-0.37-0.95-0.93S194.58,205.67,195.09,205.67z"/>
	<path class="st0" d="M206.06,206.04c-0.71,1.21-1.72,1.54-3.04,1.54h-6.27c-0.56,0-0.95-0.39-0.95-0.95s0.37-0.96,0.95-0.96h3.98
		v-7.12h1.66v7.12h0.63c1.72,0,2.48-1.21,2.48-3.1v-4.02h1.64v4.67c0,1.63,0.54,2.73,1.9,2.73c1.34,0,1.9-1.28,1.9-2.94
		c0-1.98-0.82-4.48-1.98-5.81l1.34-1.19c0.93,1.19,2.35,3.73,2.35,6.95c0,2.5-0.9,4.79-3.58,4.79c-1.16,0-2.37-0.51-2.91-1.7H206.06
		z"/>
</g>
</svg>
